<svg width="1600" height="1000" viewBox="0 0 1600 1000" fill="none" xmlns="http://www.w3.org/2000/svg">
  <rect width="1600" height="1000" fill="#F8FBFF"/>
  <rect width="1600" height="1000" fill="url(#bg)"/>
  <circle cx="1260" cy="180" r="240" fill="url(#orb)" fill-opacity="0.7"/>
  <circle cx="290" cy="790" r="310" fill="url(#orb2)" fill-opacity="0.65"/>
  <rect x="160" y="122" width="1280" height="756" rx="36" fill="rgba(255,255,255,0.62)"/>
  <rect x="160" y="122" width="1280" height="756" rx="36" fill="url(#glass)"/>
  <rect x="160.75" y="122.75" width="1278.5" height="754.5" rx="35.25" stroke="#A8C5F5" stroke-opacity="0.8" stroke-width="1.5"/>
  <path d="M332 650L548 448L716 586L962 330L1268 650" stroke="#4D7CFF" stroke-opacity="0.35" stroke-width="22" stroke-linecap="round" stroke-linejoin="round"/>
  <path d="M332 650L548 448L716 586L962 330L1268 650" stroke="white" stroke-opacity="0.5" stroke-width="8" stroke-linecap="round" stroke-linejoin="round"/>
  <circle cx="548" cy="448" r="22" fill="#4D7CFF" fill-opacity="0.6"/>
  <circle cx="962" cy="330" r="22" fill="#4D7CFF" fill-opacity="0.6"/>
  <rect x="310" y="722" width="392" height="18" rx="9" fill="#24344F" fill-opacity="0.72"/>
  <rect x="310" y="764" width="260" height="12" rx="6" fill="#5A708C" fill-opacity="0.56"/>
  <rect x="1098" y="196" width="164" height="36" rx="18" fill="#4D7CFF" fill-opacity="0.16"/>
  <defs>
    <linearGradient id="bg" x1="800" y1="0" x2="800" y2="1000" gradientUnits="userSpaceOnUse">
      <stop stop-color="#FFFFFF"/>
      <stop offset="1" stop-color="#ECF5FF"/>
    </linearGradient>
    <radialGradient id="orb" cx="0" cy="0" r="1" gradientUnits="userSpaceOnUse" gradientTransform="translate(1260 180) rotate(90) scale(240)">
      <stop stop-color="#7DA6FF"/>
      <stop offset="1" stop-color="#7DA6FF" stop-opacity="0"/>
    </radialGradient>
    <radialGradient id="orb2" cx="0" cy="0" r="1" gradientUnits="userSpaceOnUse" gradientTransform="translate(290 790) rotate(90) scale(310)">
      <stop stop-color="#B9D4FF"/>
      <stop offset="1" stop-color="#B9D4FF" stop-opacity="0"/>
    </radialGradient>
    <linearGradient id="glass" x1="228" y1="168" x2="1368" y2="850" gradientUnits="userSpaceOnUse">
      <stop stop-color="white" stop-opacity="0.8"/>
      <stop offset="1" stop-color="#EDF5FF" stop-opacity="0.6"/>
    </linearGradient>
  </defs>
</svg>
